<?xml version="1.0" standalone="no"?>
<!DOCTYPE svg PUBLIC "-//W3C//DTD SVG 20010904//EN"
 "http://www.w3.org/TR/2001/REC-SVG-20010904/DTD/svg10.dtd">
<svg version="1.0" xmlns="http://www.w3.org/2000/svg"
 width="512.000000pt" height="512.000000pt" viewBox="0 0 512.000000 512.000000"
 preserveAspectRatio="xMidYMid meet">

<g transform="translate(0.000000,512.000000) scale(0.100000,-0.100000)"
fill="#000000" stroke="none">
<path d="M1549 4057 c-70 -40 -134 -79 -143 -86 -32 -27 -14 -81 28 -81 15 0
281 145 306 167 2 2 -12 19 -30 38 l-35 34 -126 -72z"/>
<path d="M571 3976 c-117 -68 -217 -130 -222 -137 -5 -8 -9 -130 -9 -271 l0
-257 33 -24 c73 -54 428 -249 445 -244 9 2 114 61 232 130 l215 125 3 269 c2
209 -1 273 -10 281 -38 31 -434 252 -452 252 -12 -1 -117 -56 -235 -124z m432
-91 c65 -38 114 -72 110 -76 -4 -4 -75 -46 -157 -93 l-149 -85 -41 24 c-208
120 -259 151 -260 159 0 4 67 47 149 96 l150 87 40 -22 c22 -12 93 -53 158
-90z m-397 -252 l154 -88 0 -183 0 -183 -22 12 c-13 6 -85 47 -160 91 l-138
80 0 179 c0 98 3 179 6 179 4 0 76 -39 160 -87z m574 -85 c0 -95 -4 -178 -8
-184 -4 -5 -59 -40 -122 -76 -63 -36 -132 -76 -152 -88 l-38 -22 0 184 0 184
148 86 c81 48 153 87 160 87 9 1 12 -40 12 -171z"/>
<path d="M2132 3195 c-167 -96 -310 -179 -318 -186 -12 -10 -14 -82 -14 -449
0 -404 1 -438 18 -452 40 -35 721 -418 742 -418 20 0 646 353 733 412 l27 19
0 183 0 182 -45 44 -45 44 0 -199 0 -200 -297 -170 c-164 -93 -303 -171 -310
-173 -10 -3 -13 66 -13 350 l0 353 205 118 c113 66 205 122 205 126 0 9 -54
61 -63 61 -4 0 -95 -50 -202 -111 l-195 -111 -288 166 c-159 92 -297 173 -307
180 -15 11 18 32 257 170 150 88 275 161 278 163 2 2 -12 19 -30 38 l-35 34
-303 -174z m82 -490 l296 -170 0 -352 c0 -194 -4 -353 -8 -353 -5 0 -143 78
-308 173 l-299 172 -3 353 c-2 296 0 353 12 350 7 -2 147 -79 310 -173z"/>
<path d="M1408 3249 c-18 -10 -24 -45 -10 -65 4 -6 55 -39 114 -73 108 -63
141 -71 161 -40 23 37 0 62 -113 127 -114 65 -124 68 -152 51z"/>
<path d="M580 1959 c-113 -65 -213 -126 -222 -134 -16 -13 -18 -40 -18 -280
l0 -265 38 -23 c131 -83 412 -237 430 -237 29 0 438 235 457 263 12 18 15 65
15 259 0 130 -4 248 -9 261 -7 17 -70 59 -229 151 -121 69 -228 126 -238 125
-11 0 -111 -54 -224 -120z m363 -65 c72 -42 143 -83 156 -91 22 -14 19 -17
-134 -105 l-157 -89 -154 88 c-85 48 -154 90 -154 93 0 4 299 179 308 180 1 0
62 -34 135 -76z m-300 -309 l117 -68 0 -178 c0 -99 -3 -179 -7 -179 -5 1 -75
40 -158 88 l-150 87 -3 184 -2 183 42 -25 c24 -13 96 -55 161 -92z m527 -68
l0 -183 -147 -84 c-80 -47 -150 -87 -155 -88 -5 -2 -7 78 -6 178 l3 182 150
88 c83 49 151 89 153 89 1 1 2 -81 2 -182z"/>
<path d="M1505 2006 c-92 -53 -111 -68 -113 -90 -4 -33 13 -56 42 -56 11 0 71
29 131 64 92 53 111 68 113 90 4 33 -13 56 -42 56 -11 0 -70 -29 -131 -64z"/>
<path d="M3452 2058 c-17 -17 -15 -53 6 -70 9 -8 61 -41 115 -72 108 -63 141
-67 153 -21 9 35 -3 46 -123 115 -108 62 -130 69 -151 48z"/>
<path d="M3905 1849 c-57 -34 -55 -21 -55 -304 l0 -265 38 -23 c105 -67 411
-237 425 -237 14 0 279 149 296 165 6 7 -50 65 -63 65 -6 0 -46 -20 -90 -45
-43 -25 -82 -45 -87 -45 -5 0 -9 64 -9 143 l0 142 -157 157 c-87 86 -168 161
-180 167 -13 7 -23 17 -23 24 0 7 -15 27 -32 44 l-33 31 -30 -19z m202 -236
l153 -87 0 -183 c0 -101 -3 -183 -7 -183 -5 0 -75 40 -158 88 l-150 87 -3 183
c-1 100 1 182 5 182 4 0 76 -39 160 -87z"/>
<path d="M1401 1216 c-7 -8 -11 -27 -9 -42 3 -23 34 -44 265 -176 209 -120
267 -149 287 -144 27 7 41 35 32 64 -7 22 -509 312 -541 312 -12 0 -28 -6 -34
-14z"/>
<path d="M3420 1089 c-135 -77 -253 -148 -262 -156 -10 -9 -18 -24 -18 -34 0
-22 26 -49 48 -49 17 0 493 270 525 298 33 29 16 82 -27 82 -12 0 -131 -64
-266 -141z"/>
<path d="M2330 944 c-118 -68 -221 -132 -227 -141 -18 -24 -18 -512 0 -536 11
-15 442 -267 457 -267 15 0 446 252 458 267 9 13 12 83 12 270 0 229 -2 255
-18 271 -24 24 -438 262 -454 261 -7 0 -110 -56 -228 -125z m383 -73 c81 -46
149 -86 152 -90 4 -8 -289 -181 -305 -181 -18 0 -309 175 -302 181 13 13 297
177 303 176 3 -1 71 -40 152 -86z m-353 -277 l150 -87 0 -178 c0 -99 -3 -179
-6 -179 -8 0 -250 137 -286 162 l-28 19 0 175 c0 112 4 174 10 174 6 0 78 -39
160 -86z m570 -88 l0 -175 -27 -19 c-37 -25 -279 -162 -287 -162 -3 0 -6 80
-6 179 l0 178 148 86 c81 47 153 86 160 86 9 1 12 -40 12 -173z"/>
</g>
</svg>
